<svg xmlns="http://www.w3.org/2000/svg" xmlns:xlink="http://www.w3.org/1999/xlink" version="1.1" width="1000" height="1000" viewBox="0 0 1000 1000" xml:space="preserve">
<desc>Created with Fabric.js 3.5.0</desc>
<defs>
</defs>
<rect x="0" y="0" width="100%" height="100%" fill="rgba(255,255,255,0)"/>
<g transform="matrix(62.1639 0 0 62.1639 498.3582 498.3582)" id="186693">
<circle style="stroke: none; stroke-width: 1; stroke-dasharray: none; stroke-linecap: butt; stroke-dashoffset: 0; stroke-linejoin: miter; stroke-miterlimit: 4; is-custom-font: none; font-file-url: none; fill: rgb(239,237,235); fill-rule: nonzero; opacity: 1;" vector-effect="non-scaling-stroke" cx="0" cy="0" r="8"/>
</g>
<g transform="matrix(1.6739 0 0 1.6739 500.0056 446.8729)" id="826304">
<g style="" vector-effect="non-scaling-stroke">
		<g transform="matrix(1 0 0 1 -0.0005 0.001)" id="Capa_1">
<path style="stroke: none; stroke-width: 1; stroke-dasharray: none; stroke-linecap: butt; stroke-dashoffset: 0; stroke-linejoin: miter; stroke-miterlimit: 4; is-custom-font: none; font-file-url: none; fill: rgb(0,0,0); fill-rule: nonzero; opacity: 1;" transform=" translate(-255.9929, -255.9944)" d="M 503.453 299.894 v -22.98 c -0.012 -11.777 -9.556 -21.321 -21.333 -21.333 c -2.355 -0.003 -4.264 -1.911 -4.267 -4.267 v -8.533 c -0.012 -11.777 -9.556 -21.321 -21.333 -21.333 h -11.35 c -1.972 0.002 -3.678 -1.37 -4.1 -3.296 l -4.067 -16.021 c -1.049 -4.43 -3.848 -8.247 -7.758 -10.579 c -3.881 -2.327 -8.524 -3.024 -12.917 -1.938 c -4.484 1.136 -9.238 0.377 -13.146 -2.098 c -3.908 -2.476 -6.624 -6.45 -7.513 -10.989 l -0.384 -1.842 l 106.217 -77.692 c 5.484 -3.994 9.149 -10.009 10.184 -16.713 c 1.035 -6.704 -0.644 -13.545 -4.668 -19.007 c -3.995 -5.487 -10.012 -9.154 -16.719 -10.189 c -6.707 -1.036 -13.551 0.646 -19.014 4.673 l -112.137 81.976 c -3.612 -1.008 -7.338 -1.552 -11.088 -1.618 h -13.483 c -1.957 -0.021 -3.905 -0.265 -5.807 -0.727 l 77.198 -93.035 c 5.862 -7.018 7.529 -16.633 4.371 -25.214 c -3.158 -8.582 -10.66 -14.822 -19.674 -16.365 c -9.013 -1.543 -18.164 1.846 -23.997 8.888 L 266.03 130.943 c -6.937 1.794 -14.31 0.557 -20.281 -3.403 c -8.352 -5.53 -18.145 -8.483 -28.162 -8.492 h -3.671 c -8.544 -0.026 -16.529 4.247 -21.246 11.371 c -1.966 2.911 -5.01 4.919 -8.46 5.58 c -3.45 0.661 -7.021 -0.08 -9.923 -2.059 c -7.875 -4.808 -17.996 -3.732 -24.683 2.625 l -7.683 7.683 c -2.564 2.601 -4.71 5.584 -6.363 8.842 c -2.68 5.259 -8.068 8.586 -13.971 8.625 c -15.309 0.02 -27.714 12.425 -27.733 27.733 c 0.004 0.678 -0.386 1.296 -1 1.583 l -17.313 8.654 c -9.709 4.926 -15.84 14.875 -15.875 25.762 l -10.313 6.904 c -9.52 6.328 -15.239 17.003 -15.233 28.434 v 3.329 c -9.422 0.009 -17.057 7.645 -17.067 17.067 v 17.067 h -2.025 c -5.653 0.001 -10.827 3.174 -13.392 8.211 c -2.565 5.037 -2.087 11.088 1.238 15.66 l 2.746 6.717 c 24.649 59.892 67.446 110.554 122.375 144.866 v 13.242 c 0.015 13.599 11.034 24.621 24.633 24.638 h 206.729 c 13.6 -0.016 24.621 -11.037 24.638 -24.638 v -13.246 c 54.917 -34.307 97.707 -84.957 122.358 -144.833 l 2.758 -6.746 c 3.126 -4.298 3.75 -9.926 1.642 -14.804 C 509.293 304.043 506.701 301.408 503.453 299.894 z M 481.403 69.498 c 1.784 -1.336 4.031 -1.897 6.233 -1.554 c 2.231 0.328 4.236 1.538 5.567 3.358 c 1.095 1.469 1.696 3.247 1.717 5.079 c -0.019 2.71 -1.32 5.251 -3.508 6.85 L 275.416 241.22 l -8.288 2.761 c -1.694 0.567 -3.527 0.567 -5.221 0 l -12.5 -4.167 c -0.252 -0.083 -0.512 -0.086 -0.765 -0.161 L 481.403 69.498 z M 334.578 153.181 h 3.438 l -61.03 44.616 l 40.146 -48.381 C 322.616 151.889 328.562 153.173 334.578 153.181 z M 379.824 20.536 c 1.427 -1.74 3.492 -2.836 5.733 -3.042 c 3.423 -0.296 6.69 1.492 8.286 4.534 s 1.211 6.746 -0.978 9.395 l -172.247 207.58 l -10.697 7.82 c -0.091 -0.083 -0.21 -0.12 -0.298 -0.208 c -3.263 -3.271 -7.361 -5.585 -11.848 -6.691 L 379.824 20.536 z M 34.12 281.181 c 9.422 -0.009 17.057 -7.645 17.067 -17.067 v -3.329 c 0.001 -5.729 2.871 -11.076 7.646 -14.242 l 10.367 -6.942 c 4.735 -3.189 7.578 -8.52 7.587 -14.229 c 0.054 -4.413 2.54 -8.436 6.462 -10.458 l 17.163 -8.583 c 6.423 -3.177 10.494 -9.717 10.508 -16.884 c 0.017 -5.884 4.783 -10.649 10.667 -10.667 c 12.302 -0.065 23.545 -6.972 29.162 -17.917 c 0.844 -1.671 1.935 -3.205 3.237 -4.55 l 7.683 -7.683 c 0.949 -0.767 2.26 -0.907 3.35 -0.358 c 6.66 4.45 14.817 6.066 22.67 4.491 s 14.756 -6.212 19.184 -12.886 c 1.565 -2.359 4.211 -3.773 7.042 -3.762 h 3.671 c 6.656 0.007 13.164 1.967 18.717 5.638 c 4.7 3.117 9.976 5.264 15.517 6.315 l -79.465 95.764 c -1.42 0.121 -2.846 -0.135 -4.136 -0.741 c -9.746 -4.879 -21.52 -2.966 -29.221 4.746 l -8.513 8.513 c -3.308 3.336 -3.296 8.719 0.026 12.041 c 3.322 3.322 8.704 3.334 12.041 0.026 l 8.513 -8.513 c 2.519 -2.518 6.369 -3.136 9.55 -1.533 c 6.001 3.025 12.964 3.52 19.333 1.375 l 9.162 -3.054 c 2.965 -1.004 6.242 -0.231 8.446 1.992 c 8.545 8.509 21.897 9.833 31.946 3.167 l 7.325 -4.879 c 2.119 -1.41 4.768 -1.765 7.183 -0.962 l 12.5 4.167 c 5.198 1.725 10.814 1.725 16.012 0 l 12.508 -4.167 c 2.416 -0.791 5.061 -0.436 7.183 0.962 l 18.771 12.513 c 3.92 2.576 9.184 1.504 11.786 -2.398 c 2.602 -3.903 1.566 -9.174 -2.319 -11.802 l -18.495 -12.332 l 78.598 -57.49 c 5.058 13.089 17.64 21.725 31.672 21.738 c 2.761 -0.012 5.512 -0.338 8.2 -0.971 l 4.067 16.009 c 2.273 9.57 10.838 16.314 20.675 16.279 h 11.35 c 2.355 0.003 4.264 1.911 4.267 4.267 v 8.533 c 0.012 11.777 9.556 21.321 21.333 21.333 c 2.355 0.003 4.264 1.912 4.267 4.267 v 21.333 H 34.12 V 281.181 z M 490.553 322.402 c -23.635 57.278 -64.824 105.586 -117.645 137.979 h -23.047 c -4.713 0 -8.533 3.82 -8.533 8.533 s 3.821 8.533 8.533 8.533 h 17.067 v 9.496 c -0.004 4.18 -3.392 7.567 -7.571 7.571 H 152.628 c -4.178 -0.006 -7.563 -3.393 -7.567 -7.571 v -9.496 h 102.4 c 4.713 0 8.533 -3.82 8.533 -8.533 s -3.82 -8.533 -8.533 -8.533 H 139.068 C 86.222 428.006 45.025 379.681 21.42 322.377 l -2.892 -7.063 h 474.925 L 490.553 322.402 z" stroke-linecap="round"/>
</g>
		<g transform="matrix(1 0 0 1 157.874 127.5798)" id="Capa_1">
<path style="stroke: none; stroke-width: 1; stroke-dasharray: none; stroke-linecap: butt; stroke-dashoffset: 0; stroke-linejoin: miter; stroke-miterlimit: 4; is-custom-font: none; font-file-url: none; fill: rgb(0,0,0); fill-rule: nonzero; opacity: 1;" transform=" translate(-413.8676, -383.5732)" d="M 375.49 434.764 L 375.49 434.764 c 1.501 0 2.974 -0.396 4.271 -1.15 c 34.867 -21.383 62.779 -52.424 80.35 -89.358 c 1.194 -2.805 0.801 -6.033 -1.031 -8.469 c -1.832 -2.436 -4.824 -3.71 -7.85 -3.342 s -5.625 2.323 -6.819 5.127 c -16.077 33.679 -41.59 61.963 -73.438 81.417 l -0.033 0.021 c -3.224 2.022 -4.718 5.936 -3.662 9.592 C 368.334 432.258 371.684 434.772 375.49 434.764 z" stroke-linecap="round"/>
</g>
</g>
</g>
</svg>